<svg aria-roledescription="er" role="graphics-document document" viewBox="-77.31900787353516 0 323.9576416015625 410" style="max-width: 323.958px; background-color: white;" xmlns:xlink="http://www.w3.org/1999/xlink" xmlns="http://www.w3.org/2000/svg" width="100%" id="my-svg"><style>#my-svg{font-family:"trebuchet ms",verdana,arial,sans-serif;font-size:16px;fill:#000000;}#my-svg .error-icon{fill:#552222;}#my-svg .error-text{fill:#552222;stroke:#552222;}#my-svg .edge-thickness-normal{stroke-width:2px;}#my-svg .edge-thickness-thick{stroke-width:3.5px;}#my-svg .edge-pattern-solid{stroke-dasharray:0;}#my-svg .edge-pattern-dashed{stroke-dasharray:3;}#my-svg .edge-pattern-dotted{stroke-dasharray:2;}#my-svg .marker{fill:#000000;stroke:#000000;}#my-svg .marker.cross{stroke:#000000;}#my-svg svg{font-family:"trebuchet ms",verdana,arial,sans-serif;font-size:16px;}#my-svg .entityBox{fill:#cde498;stroke:#13540c;}#my-svg .attributeBoxOdd{fill:#ffffff;stroke:#13540c;}#my-svg .attributeBoxEven{fill:#f2f2f2;stroke:#13540c;}#my-svg .relationshipLabelBox{fill:hsl(78.1578947368, 58.4615384615%, 84.5098039216%);opacity:0.7;background-color:hsl(78.1578947368, 58.4615384615%, 84.5098039216%);}#my-svg .relationshipLabelBox rect{opacity:0.5;}#my-svg .relationshipLine{stroke:#000000;}#my-svg .entityTitleText{text-anchor:middle;font-size:18px;fill:#000000;}#my-svg #MD_PARENT_START{fill:#f5f5f5!important;stroke:#000000!important;stroke-width:1;}#my-svg #MD_PARENT_END{fill:#f5f5f5!important;stroke:#000000!important;stroke-width:1;}#my-svg :root{--mermaid-font-family:"trebuchet ms",verdana,arial,sans-serif;}</style><g/><defs><marker orient="auto" markerHeight="240" markerWidth="190" refY="7" refX="0" id="MD_PARENT_START"><path d="M 18,7 L9,13 L1,7 L9,1 Z"/></marker></defs><defs><marker orient="auto" markerHeight="28" markerWidth="20" refY="7" refX="19" id="MD_PARENT_END"><path d="M 18,7 L9,13 L1,7 L9,1 Z"/></marker></defs><defs><marker orient="auto" markerHeight="18" markerWidth="18" refY="9" refX="0" id="ONLY_ONE_START"><path d="M9,0 L9,18 M15,0 L15,18" fill="none" stroke="gray"/></marker></defs><defs><marker orient="auto" markerHeight="18" markerWidth="18" refY="9" refX="18" id="ONLY_ONE_END"><path d="M3,0 L3,18 M9,0 L9,18" fill="none" stroke="gray"/></marker></defs><defs><marker orient="auto" markerHeight="18" markerWidth="30" refY="9" refX="0" id="ZERO_OR_ONE_START"><circle r="6" cy="9" cx="21" fill="white" stroke="gray"/><path d="M9,0 L9,18" fill="none" stroke="gray"/></marker></defs><defs><marker orient="auto" markerHeight="18" markerWidth="30" refY="9" refX="30" id="ZERO_OR_ONE_END"><circle r="6" cy="9" cx="9" fill="white" stroke="gray"/><path d="M21,0 L21,18" fill="none" stroke="gray"/></marker></defs><defs><marker orient="auto" markerHeight="36" markerWidth="45" refY="18" refX="18" id="ONE_OR_MORE_START"><path d="M0,18 Q 18,0 36,18 Q 18,36 0,18 M42,9 L42,27" fill="none" stroke="gray"/></marker></defs><defs><marker orient="auto" markerHeight="36" markerWidth="45" refY="18" refX="27" id="ONE_OR_MORE_END"><path d="M3,9 L3,27 M9,18 Q27,0 45,18 Q27,36 9,18" fill="none" stroke="gray"/></marker></defs><defs><marker orient="auto" markerHeight="36" markerWidth="57" refY="18" refX="18" id="ZERO_OR_MORE_START"><circle r="6" cy="18" cx="48" fill="white" stroke="gray"/><path d="M0,18 Q18,0 36,18 Q18,36 0,18" fill="none" stroke="gray"/></marker></defs><defs><marker orient="auto" markerHeight="36" markerWidth="57" refY="18" refX="39" id="ZERO_OR_MORE_END"><circle r="6" cy="18" cx="9" fill="white" stroke="gray"/><path d="M21,18 Q39,0 57,18 Q39,36 21,18" fill="none" stroke="gray"/></marker></defs><path style="stroke: gray; fill: none;" marker-start="url(#ZERO_OR_MORE_START)" marker-end="url(#ZERO_OR_MORE_END)" d="M33.83268737792969,147.58813331604003L18.38290786743164,160.82344443003336C2.9331283569335938,174.0587555440267,-27.9664306640625,200.52937777201336,-30.271878560384113,223.0971643320719C-32.57732645670573,245.66495089213052,-6.288663228352864,264.32990178426104,6.855668385823567,273.6623772303263L20,282.9948526763916" class="er relationshipLine"/><path style="stroke: gray; fill: none;" marker-start="url(#ZERO_OR_MORE_START)" marker-end="url(#ZERO_OR_MORE_END)" d="M60.589263233229346,177L57.34672108018136,185.33333333333334C54.10417892713337,193.66666666666666,47.61909462103739,210.33333333333334,48.28891553528204,227C48.9587364495267,243.66666666666666,56.78346258411199,260.3333333333333,60.69582565140464,268.6666666666667L64.60818871869728,277" class="er relationshipLine"/><path style="stroke: gray; fill: none;" marker-start="url(#ZERO_OR_ONE_START)" marker-end="url(#ONLY_ONE_END)" d="M117.65983191118553,277L121.57219497847818,268.6666666666667C125.48455804577083,260.3333333333333,133.30928418035612,243.66666666666666,133.97910509460078,227C134.64892600884542,210.33333333333334,128.16384170274944,193.66666666666666,124.92129954970146,185.33333333333334L121.67875739665347,177" class="er relationshipLine"/><path style="stroke: gray; fill: none;" marker-start="url(#ZERO_OR_ONE_START)" marker-end="url(#ONLY_ONE_END)" d="M162.2680206298828,282.9948526763916L175.41235224405924,273.6623772303263C188.5566838582357,264.32990178426104,214.84534708658853,245.66495089213052,212.53989919026694,223.0971643320719C210.2344512939453,200.52937777201336,179.33489227294922,174.0587555440267,163.88511276245117,160.82344443003336L148.43533325195312,147.58813331604003" class="er relationshipLine"/><g transform="translate(33.83268737792969,20 )" id="entity-User-818c511a-4a32-5484-ba70-875d765a9175"><rect height="157" width="114.60264587402344" y="0" x="0" class="er entityBox"/><text style="dominant-baseline: middle; text-anchor: middle; font-size: 12px;" transform="translate(57.30132293701172,12)" y="0" x="0" id="text-entity-User-818c511a-4a32-5484-ba70-875d765a9175" class="er entityLabel">User</text><rect height="23" width="37.39605712890625" y="24" x="0" class="er attributeBoxOdd"/><text style="dominant-baseline: middle; font-size: 10.2px;" transform="translate(5,35.5)" y="0" x="0" id="text-entity-User-818c511a-4a32-5484-ba70-875d765a9175-attr-1-type" class="er entityLabel">String</text><rect height="23" width="54.62846374511719" y="24" x="37.39605712890625" class="er attributeBoxOdd"/><text style="dominant-baseline: middle; font-size: 10.2px;" transform="translate(42.39605712890625,35.5)" y="0" x="0" id="text-entity-User-818c511a-4a32-5484-ba70-875d765a9175-attr-1-name" class="er entityLabel">userID</text><rect height="23" width="22.578125" y="24" x="92.02452087402344" class="er attributeBoxOdd"/><text style="dominant-baseline: middle; font-size: 10.2px;" transform="translate(97.02452087402344,35.5)" y="0" x="0" id="text-entity-User-818c511a-4a32-5484-ba70-875d765a9175-attr-1-comment" class="er entityLabel">🗝️</text><rect height="22" width="37.39605712890625" y="47" x="0" class="er attributeBoxEven"/><text style="dominant-baseline: middle; font-size: 10.2px;" transform="translate(5,58)" y="0" x="0" id="text-entity-User-818c511a-4a32-5484-ba70-875d765a9175-attr-2-type" class="er entityLabel">String</text><rect height="22" width="54.62846374511719" y="47" x="37.39605712890625" class="er attributeBoxEven"/><text style="dominant-baseline: middle; font-size: 10.2px;" transform="translate(42.39605712890625,58)" y="0" x="0" id="text-entity-User-818c511a-4a32-5484-ba70-875d765a9175-attr-2-name" class="er entityLabel">name</text><rect height="22" width="22.578125" y="47" x="92.02452087402344" class="er attributeBoxEven"/><text style="dominant-baseline: middle; font-size: 10.2px;" transform="translate(97.02452087402344,58)" y="0" x="0" id="text-entity-User-818c511a-4a32-5484-ba70-875d765a9175-attr-2-comment" class="er entityLabel"/><rect height="22" width="37.39605712890625" y="69" x="0" class="er attributeBoxOdd"/><text style="dominant-baseline: middle; font-size: 10.2px;" transform="translate(5,80)" y="0" x="0" id="text-entity-User-818c511a-4a32-5484-ba70-875d765a9175-attr-3-type" class="er entityLabel">String</text><rect height="22" width="54.62846374511719" y="69" x="37.39605712890625" class="er attributeBoxOdd"/><text style="dominant-baseline: middle; font-size: 10.2px;" transform="translate(42.39605712890625,80)" y="0" x="0" id="text-entity-User-818c511a-4a32-5484-ba70-875d765a9175-attr-3-name" class="er entityLabel">username</text><rect height="22" width="22.578125" y="69" x="92.02452087402344" class="er attributeBoxOdd"/><text style="dominant-baseline: middle; font-size: 10.2px;" transform="translate(97.02452087402344,80)" y="0" x="0" id="text-entity-User-818c511a-4a32-5484-ba70-875d765a9175-attr-3-comment" class="er entityLabel"/><rect height="22" width="37.39605712890625" y="91" x="0" class="er attributeBoxEven"/><text style="dominant-baseline: middle; font-size: 10.2px;" transform="translate(5,102)" y="0" x="0" id="text-entity-User-818c511a-4a32-5484-ba70-875d765a9175-attr-4-type" class="er entityLabel">String</text><rect height="22" width="54.62846374511719" y="91" x="37.39605712890625" class="er attributeBoxEven"/><text style="dominant-baseline: middle; font-size: 10.2px;" transform="translate(42.39605712890625,102)" y="0" x="0" id="text-entity-User-818c511a-4a32-5484-ba70-875d765a9175-attr-4-name" class="er entityLabel">email</text><rect height="22" width="22.578125" y="91" x="92.02452087402344" class="er attributeBoxEven"/><text style="dominant-baseline: middle; font-size: 10.2px;" transform="translate(97.02452087402344,102)" y="0" x="0" id="text-entity-User-818c511a-4a32-5484-ba70-875d765a9175-attr-4-comment" class="er entityLabel"/><rect height="22" width="37.39605712890625" y="113" x="0" class="er attributeBoxOdd"/><text style="dominant-baseline: middle; font-size: 10.2px;" transform="translate(5,124)" y="0" x="0" id="text-entity-User-818c511a-4a32-5484-ba70-875d765a9175-attr-5-type" class="er entityLabel">String</text><rect height="22" width="54.62846374511719" y="113" x="37.39605712890625" class="er attributeBoxOdd"/><text style="dominant-baseline: middle; font-size: 10.2px;" transform="translate(42.39605712890625,124)" y="0" x="0" id="text-entity-User-818c511a-4a32-5484-ba70-875d765a9175-attr-5-name" class="er entityLabel">password</text><rect height="22" width="22.578125" y="113" x="92.02452087402344" class="er attributeBoxOdd"/><text style="dominant-baseline: middle; font-size: 10.2px;" transform="translate(97.02452087402344,124)" y="0" x="0" id="text-entity-User-818c511a-4a32-5484-ba70-875d765a9175-attr-5-comment" class="er entityLabel"/><rect height="22" width="37.39605712890625" y="135" x="0" class="er attributeBoxEven"/><text style="dominant-baseline: middle; font-size: 10.2px;" transform="translate(5,146)" y="0" x="0" id="text-entity-User-818c511a-4a32-5484-ba70-875d765a9175-attr-6-type" class="er entityLabel">String</text><rect height="22" width="54.62846374511719" y="135" x="37.39605712890625" class="er attributeBoxEven"/><text style="dominant-baseline: middle; font-size: 10.2px;" transform="translate(42.39605712890625,146)" y="0" x="0" id="text-entity-User-818c511a-4a32-5484-ba70-875d765a9175-attr-6-name" class="er entityLabel">salt</text><rect height="22" width="22.578125" y="135" x="92.02452087402344" class="er attributeBoxEven"/><text style="dominant-baseline: middle; font-size: 10.2px;" transform="translate(97.02452087402344,146)" y="0" x="0" id="text-entity-User-818c511a-4a32-5484-ba70-875d765a9175-attr-6-comment" class="er entityLabel"/></g><g transform="translate(20,277 )" id="entity-Friendship-2db03272-0ee0-5ae7-87c7-4c79f62be075"><rect height="113" width="142.2680206298828" y="0" x="0" class="er entityBox"/><text style="dominant-baseline: middle; text-anchor: middle; font-size: 12px;" transform="translate(71.1340103149414,12)" y="0" x="0" id="text-entity-Friendship-2db03272-0ee0-5ae7-87c7-4c79f62be075" class="er entityLabel">Friendship</text><rect height="23" width="54.095550537109375" y="24" x="0" class="er attributeBoxOdd"/><text style="dominant-baseline: middle; font-size: 10.2px;" transform="translate(5,35.5)" y="0" x="0" id="text-entity-Friendship-2db03272-0ee0-5ae7-87c7-4c79f62be075-attr-1-type" class="er entityLabel">String</text><rect height="23" width="65.59434509277344" y="24" x="54.095550537109375" class="er attributeBoxOdd"/><text style="dominant-baseline: middle; font-size: 10.2px;" transform="translate(59.095550537109375,35.5)" y="0" x="0" id="text-entity-Friendship-2db03272-0ee0-5ae7-87c7-4c79f62be075-attr-1-name" class="er entityLabel">friendshipID</text><rect height="23" width="22.578125" y="24" x="119.68989562988281" class="er attributeBoxOdd"/><text style="dominant-baseline: middle; font-size: 10.2px;" transform="translate(124.68989562988281,35.5)" y="0" x="0" id="text-entity-Friendship-2db03272-0ee0-5ae7-87c7-4c79f62be075-attr-1-comment" class="er entityLabel">🗝️</text><rect height="22" width="54.095550537109375" y="47" x="0" class="er attributeBoxEven"/><text style="dominant-baseline: middle; font-size: 10.2px;" transform="translate(5,58)" y="0" x="0" id="text-entity-Friendship-2db03272-0ee0-5ae7-87c7-4c79f62be075-attr-2-type" class="er entityLabel">DateTime</text><rect height="22" width="65.59434509277344" y="47" x="54.095550537109375" class="er attributeBoxEven"/><text style="dominant-baseline: middle; font-size: 10.2px;" transform="translate(59.095550537109375,58)" y="0" x="0" id="text-entity-Friendship-2db03272-0ee0-5ae7-87c7-4c79f62be075-attr-2-name" class="er entityLabel">createdAt</text><rect height="22" width="22.578125" y="47" x="119.68989562988281" class="er attributeBoxEven"/><text style="dominant-baseline: middle; font-size: 10.2px;" transform="translate(124.68989562988281,58)" y="0" x="0" id="text-entity-Friendship-2db03272-0ee0-5ae7-87c7-4c79f62be075-attr-2-comment" class="er entityLabel"/><rect height="22" width="54.095550537109375" y="69" x="0" class="er attributeBoxOdd"/><text style="dominant-baseline: middle; font-size: 10.2px;" transform="translate(5,80)" y="0" x="0" id="text-entity-Friendship-2db03272-0ee0-5ae7-87c7-4c79f62be075-attr-3-type" class="er entityLabel">DateTime</text><rect height="22" width="65.59434509277344" y="69" x="54.095550537109375" class="er attributeBoxOdd"/><text style="dominant-baseline: middle; font-size: 10.2px;" transform="translate(59.095550537109375,80)" y="0" x="0" id="text-entity-Friendship-2db03272-0ee0-5ae7-87c7-4c79f62be075-attr-3-name" class="er entityLabel">updatedAt</text><rect height="22" width="22.578125" y="69" x="119.68989562988281" class="er attributeBoxOdd"/><text style="dominant-baseline: middle; font-size: 10.2px;" transform="translate(124.68989562988281,80)" y="0" x="0" id="text-entity-Friendship-2db03272-0ee0-5ae7-87c7-4c79f62be075-attr-3-comment" class="er entityLabel"/><rect height="22" width="54.095550537109375" y="91" x="0" class="er attributeBoxEven"/><text style="dominant-baseline: middle; font-size: 10.2px;" transform="translate(5,102)" y="0" x="0" id="text-entity-Friendship-2db03272-0ee0-5ae7-87c7-4c79f62be075-attr-4-type" class="er entityLabel">Int</text><rect height="22" width="65.59434509277344" y="91" x="54.095550537109375" class="er attributeBoxEven"/><text style="dominant-baseline: middle; font-size: 10.2px;" transform="translate(59.095550537109375,102)" y="0" x="0" id="text-entity-Friendship-2db03272-0ee0-5ae7-87c7-4c79f62be075-attr-4-name" class="er entityLabel">status</text><rect height="22" width="22.578125" y="91" x="119.68989562988281" class="er attributeBoxEven"/><text style="dominant-baseline: middle; font-size: 10.2px;" transform="translate(124.68989562988281,102)" y="0" x="0" id="text-entity-Friendship-2db03272-0ee0-5ae7-87c7-4c79f62be075-attr-4-comment" class="er entityLabel"/></g><rect height="14" width="58.830078125" y="206.83880615234375" x="-57.31900978088379" class="er relationshipLabelBox"/><text style="text-anchor: middle; dominant-baseline: middle; font-size: 12px;" y="213.83880615234375" x="-27.90397071838379" id="rel1" class="er relationshipLabel">friendships</text><rect height="14" width="45.39453125" y="220.54075622558594" x="25.61593246459961" class="er relationshipLabelBox"/><text style="text-anchor: middle; dominant-baseline: middle; font-size: 12px;" y="227.54075622558594" x="48.31319808959961" id="rel2" class="er relationshipLabel">friendOf</text><rect height="14" width="23.958984375" y="220.54075622558594" x="121.97509765625" class="er relationshipLabelBox"/><text style="text-anchor: middle; dominant-baseline: middle; font-size: 12px;" y="227.54075622558594" x="133.95458984375" id="rel3" class="er relationshipLabel">user</text><rect height="14" width="32.623046875" y="206.8389129638672" x="193.8603057861328" class="er relationshipLabelBox"/><text style="text-anchor: middle; dominant-baseline: middle; font-size: 12px;" y="213.8389129638672" x="210.1718292236328" id="rel4" class="er relationshipLabel">friend</text></svg>