<svg aria-roledescription="er" role="graphics-document document" viewBox="-71.4238166809082 0 322.9212951660156 622" style="max-width: 322.921px; background-color: white;" xmlns:xlink="http://www.w3.org/1999/xlink" xmlns="http://www.w3.org/2000/svg" width="100%" id="my-svg"><style>#my-svg{font-family:"trebuchet ms",verdana,arial,sans-serif;font-size:16px;fill:#000000;}#my-svg .error-icon{fill:#552222;}#my-svg .error-text{fill:#552222;stroke:#552222;}#my-svg .edge-thickness-normal{stroke-width:2px;}#my-svg .edge-thickness-thick{stroke-width:3.5px;}#my-svg .edge-pattern-solid{stroke-dasharray:0;}#my-svg .edge-pattern-dashed{stroke-dasharray:3;}#my-svg .edge-pattern-dotted{stroke-dasharray:2;}#my-svg .marker{fill:#000000;stroke:#000000;}#my-svg .marker.cross{stroke:#000000;}#my-svg svg{font-family:"trebuchet ms",verdana,arial,sans-serif;font-size:16px;}#my-svg .entityBox{fill:#cde498;stroke:#13540c;}#my-svg .attributeBoxOdd{fill:#ffffff;stroke:#13540c;}#my-svg .attributeBoxEven{fill:#f2f2f2;stroke:#13540c;}#my-svg .relationshipLabelBox{fill:hsl(78.1578947368, 58.4615384615%, 84.5098039216%);opacity:0.7;background-color:hsl(78.1578947368, 58.4615384615%, 84.5098039216%);}#my-svg .relationshipLabelBox rect{opacity:0.5;}#my-svg .relationshipLine{stroke:#000000;}#my-svg .entityTitleText{text-anchor:middle;font-size:18px;fill:#000000;}#my-svg #MD_PARENT_START{fill:#f5f5f5!important;stroke:#000000!important;stroke-width:1;}#my-svg #MD_PARENT_END{fill:#f5f5f5!important;stroke:#000000!important;stroke-width:1;}#my-svg :root{--mermaid-font-family:"trebuchet ms",verdana,arial,sans-serif;}</style><g/><defs><marker orient="auto" markerHeight="240" markerWidth="190" refY="7" refX="0" id="MD_PARENT_START"><path d="M 18,7 L9,13 L1,7 L9,1 Z"/></marker></defs><defs><marker orient="auto" markerHeight="28" markerWidth="20" refY="7" refX="19" id="MD_PARENT_END"><path d="M 18,7 L9,13 L1,7 L9,1 Z"/></marker></defs><defs><marker orient="auto" markerHeight="18" markerWidth="18" refY="9" refX="0" id="ONLY_ONE_START"><path d="M9,0 L9,18 M15,0 L15,18" fill="none" stroke="gray"/></marker></defs><defs><marker orient="auto" markerHeight="18" markerWidth="18" refY="9" refX="18" id="ONLY_ONE_END"><path d="M3,0 L3,18 M9,0 L9,18" fill="none" stroke="gray"/></marker></defs><defs><marker orient="auto" markerHeight="18" markerWidth="30" refY="9" refX="0" id="ZERO_OR_ONE_START"><circle r="6" cy="9" cx="21" fill="white" stroke="gray"/><path d="M9,0 L9,18" fill="none" stroke="gray"/></marker></defs><defs><marker orient="auto" markerHeight="18" markerWidth="30" refY="9" refX="30" id="ZERO_OR_ONE_END"><circle r="6" cy="9" cx="9" fill="white" stroke="gray"/><path d="M21,0 L21,18" fill="none" stroke="gray"/></marker></defs><defs><marker orient="auto" markerHeight="36" markerWidth="45" refY="18" refX="18" id="ONE_OR_MORE_START"><path d="M0,18 Q 18,0 36,18 Q 18,36 0,18 M42,9 L42,27" fill="none" stroke="gray"/></marker></defs><defs><marker orient="auto" markerHeight="36" markerWidth="45" refY="18" refX="27" id="ONE_OR_MORE_END"><path d="M3,9 L3,27 M9,18 Q27,0 45,18 Q27,36 9,18" fill="none" stroke="gray"/></marker></defs><defs><marker orient="auto" markerHeight="36" markerWidth="57" refY="18" refX="18" id="ZERO_OR_MORE_START"><circle r="6" cy="18" cx="48" fill="white" stroke="gray"/><path d="M0,18 Q18,0 36,18 Q18,36 0,18" fill="none" stroke="gray"/></marker></defs><defs><marker orient="auto" markerHeight="36" markerWidth="57" refY="18" refX="39" id="ZERO_OR_MORE_END"><circle r="6" cy="18" cx="9" fill="white" stroke="gray"/><path d="M21,18 Q39,0 57,18 Q39,36 21,18" fill="none" stroke="gray"/></marker></defs><path style="stroke: gray; fill: none;" marker-start="url(#ZERO_OR_MORE_START)" marker-end="url(#ZERO_OR_MORE_END)" d="M39.209625244140625,147.58813331604003L23.759845733642578,160.82344443003336C8.310066223144531,174.0587555440267,-22.589492797851562,200.52937777201336,-25.791097005208332,222.460893351237C-28.992701212565105,244.39240893046062,-4.496350606282552,261.78481786092124,7.751824696858724,270.4810223261515L20,279.1772267913818" class="er relationshipLine"/><path style="stroke: gray; fill: none;" marker-start="url(#ZERO_OR_MORE_START)" marker-end="url(#ZERO_OR_MORE_END)" d="M65.96620109944028,177L62.7236589463923,185.33333333333334C59.481116793344306,193.66666666666666,52.99603248724833,210.33333333333334,53.665853401492974,227C54.335674315737634,243.66666666666666,62.160400450322925,260.3333333333333,66.07276351761557,268.6666666666667L69.98512658490822,277" class="er relationshipLine"/><path style="stroke: gray; fill: none;" marker-start="url(#ZERO_OR_ONE_START)" marker-end="url(#ONLY_ONE_END)" d="M123.03676977739647,277L126.94913284468912,268.6666666666667C130.86149591198176,260.3333333333333,138.68622204656705,243.66666666666666,139.35604296081172,227C140.02586387505636,210.33333333333334,133.54077956896037,193.66666666666666,130.29823741591238,185.33333333333334L127.0556952628644,177" class="er relationshipLine"/><path style="stroke: gray; fill: none;" marker-start="url(#ZERO_OR_ONE_START)" marker-end="url(#ONLY_ONE_END)" d="M173.0218963623047,279.1772267913818L185.27007166544595,270.4810223261515C197.51824696858725,261.78481786092124,222.01459757486978,244.39240893046062,218.81299336751303,222.460893351237C215.61138916015625,200.52937777201336,184.71183013916016,174.0587555440267,169.2620506286621,160.82344443003336L153.81227111816406,147.58813331604003" class="er relationshipLine"/><path style="stroke: gray; fill: none;" marker-start="url(#ZERO_OR_ONE_START)" marker-end="url(#ONLY_ONE_END)" d="M96.51094818115234,390L96.51094818115234,398.3333333333333C96.51094818115234,406.6666666666667,96.51094818115234,423.3333333333333,96.51094818115234,440C96.51094818115234,456.6666666666667,96.51094818115234,473.3333333333333,96.51094818115234,481.6666666666667L96.51094818115234,490" class="er relationshipLine"/><g transform="translate(35.38190460205078,490 )" id="entity-InviteStatus-b5b0cf39-cf07-5dfe-b645-f7e1e6445d60"><rect height="112" width="122.25808715820312" y="0" x="0" class="er entityBox"/><text style="dominant-baseline: middle; text-anchor: middle; font-size: 12px;" transform="translate(61.12904357910156,12)" y="0" x="0" id="text-entity-InviteStatus-b5b0cf39-cf07-5dfe-b645-f7e1e6445d60" class="er entityLabel">InviteStatus</text><rect height="22" width="61.12904357910156" y="24" x="0" class="er attributeBoxOdd"/><text style="dominant-baseline: middle; font-size: 10.2px;" transform="translate(5,35)" y="0" x="0" id="text-entity-InviteStatus-b5b0cf39-cf07-5dfe-b645-f7e1e6445d60-attr-1-type" class="er entityLabel">NO_STATUS</text><rect height="22" width="61.12904357910156" y="24" x="61.12904357910156" class="er attributeBoxOdd"/><text style="dominant-baseline: middle; font-size: 10.2px;" transform="translate(66.12904357910156,35)" y="0" x="0" id="text-entity-InviteStatus-b5b0cf39-cf07-5dfe-b645-f7e1e6445d60-attr-1-name" class="er entityLabel">NO_STATUS</text><rect height="22" width="61.12904357910156" y="46" x="0" class="er attributeBoxEven"/><text style="dominant-baseline: middle; font-size: 10.2px;" transform="translate(5,57)" y="0" x="0" id="text-entity-InviteStatus-b5b0cf39-cf07-5dfe-b645-f7e1e6445d60-attr-2-type" class="er entityLabel">PENDING</text><rect height="22" width="61.12904357910156" y="46" x="61.12904357910156" class="er attributeBoxEven"/><text style="dominant-baseline: middle; font-size: 10.2px;" transform="translate(66.12904357910156,57)" y="0" x="0" id="text-entity-InviteStatus-b5b0cf39-cf07-5dfe-b645-f7e1e6445d60-attr-2-name" class="er entityLabel">PENDING</text><rect height="22" width="61.12904357910156" y="68" x="0" class="er attributeBoxOdd"/><text style="dominant-baseline: middle; font-size: 10.2px;" transform="translate(5,79)" y="0" x="0" id="text-entity-InviteStatus-b5b0cf39-cf07-5dfe-b645-f7e1e6445d60-attr-3-type" class="er entityLabel">FRIEND</text><rect height="22" width="61.12904357910156" y="68" x="61.12904357910156" class="er attributeBoxOdd"/><text style="dominant-baseline: middle; font-size: 10.2px;" transform="translate(66.12904357910156,79)" y="0" x="0" id="text-entity-InviteStatus-b5b0cf39-cf07-5dfe-b645-f7e1e6445d60-attr-3-name" class="er entityLabel">FRIEND</text><rect height="22" width="61.12904357910156" y="90" x="0" class="er attributeBoxEven"/><text style="dominant-baseline: middle; font-size: 10.2px;" transform="translate(5,101)" y="0" x="0" id="text-entity-InviteStatus-b5b0cf39-cf07-5dfe-b645-f7e1e6445d60-attr-4-type" class="er entityLabel">BLOCKED</text><rect height="22" width="61.12904357910156" y="90" x="61.12904357910156" class="er attributeBoxEven"/><text style="dominant-baseline: middle; font-size: 10.2px;" transform="translate(66.12904357910156,101)" y="0" x="0" id="text-entity-InviteStatus-b5b0cf39-cf07-5dfe-b645-f7e1e6445d60-attr-4-name" class="er entityLabel">BLOCKED</text></g><g transform="translate(39.209625244140625,20 )" id="entity-User-818c511a-4a32-5484-ba70-875d765a9175"><rect height="157" width="114.60264587402344" y="0" x="0" class="er entityBox"/><text style="dominant-baseline: middle; text-anchor: middle; font-size: 12px;" transform="translate(57.30132293701172,12)" y="0" x="0" id="text-entity-User-818c511a-4a32-5484-ba70-875d765a9175" class="er entityLabel">User</text><rect height="23" width="37.39605712890625" y="24" x="0" class="er attributeBoxOdd"/><text style="dominant-baseline: middle; font-size: 10.2px;" transform="translate(5,35.5)" y="0" x="0" id="text-entity-User-818c511a-4a32-5484-ba70-875d765a9175-attr-1-type" class="er entityLabel">String</text><rect height="23" width="54.62846374511719" y="24" x="37.39605712890625" class="er attributeBoxOdd"/><text style="dominant-baseline: middle; font-size: 10.2px;" transform="translate(42.39605712890625,35.5)" y="0" x="0" id="text-entity-User-818c511a-4a32-5484-ba70-875d765a9175-attr-1-name" class="er entityLabel">userID</text><rect height="23" width="22.578125" y="24" x="92.02452087402344" class="er attributeBoxOdd"/><text style="dominant-baseline: middle; font-size: 10.2px;" transform="translate(97.02452087402344,35.5)" y="0" x="0" id="text-entity-User-818c511a-4a32-5484-ba70-875d765a9175-attr-1-comment" class="er entityLabel">🗝️</text><rect height="22" width="37.39605712890625" y="47" x="0" class="er attributeBoxEven"/><text style="dominant-baseline: middle; font-size: 10.2px;" transform="translate(5,58)" y="0" x="0" id="text-entity-User-818c511a-4a32-5484-ba70-875d765a9175-attr-2-type" class="er entityLabel">String</text><rect height="22" width="54.62846374511719" y="47" x="37.39605712890625" class="er attributeBoxEven"/><text style="dominant-baseline: middle; font-size: 10.2px;" transform="translate(42.39605712890625,58)" y="0" x="0" id="text-entity-User-818c511a-4a32-5484-ba70-875d765a9175-attr-2-name" class="er entityLabel">name</text><rect height="22" width="22.578125" y="47" x="92.02452087402344" class="er attributeBoxEven"/><text style="dominant-baseline: middle; font-size: 10.2px;" transform="translate(97.02452087402344,58)" y="0" x="0" id="text-entity-User-818c511a-4a32-5484-ba70-875d765a9175-attr-2-comment" class="er entityLabel"/><rect height="22" width="37.39605712890625" y="69" x="0" class="er attributeBoxOdd"/><text style="dominant-baseline: middle; font-size: 10.2px;" transform="translate(5,80)" y="0" x="0" id="text-entity-User-818c511a-4a32-5484-ba70-875d765a9175-attr-3-type" class="er entityLabel">String</text><rect height="22" width="54.62846374511719" y="69" x="37.39605712890625" class="er attributeBoxOdd"/><text style="dominant-baseline: middle; font-size: 10.2px;" transform="translate(42.39605712890625,80)" y="0" x="0" id="text-entity-User-818c511a-4a32-5484-ba70-875d765a9175-attr-3-name" class="er entityLabel">username</text><rect height="22" width="22.578125" y="69" x="92.02452087402344" class="er attributeBoxOdd"/><text style="dominant-baseline: middle; font-size: 10.2px;" transform="translate(97.02452087402344,80)" y="0" x="0" id="text-entity-User-818c511a-4a32-5484-ba70-875d765a9175-attr-3-comment" class="er entityLabel"/><rect height="22" width="37.39605712890625" y="91" x="0" class="er attributeBoxEven"/><text style="dominant-baseline: middle; font-size: 10.2px;" transform="translate(5,102)" y="0" x="0" id="text-entity-User-818c511a-4a32-5484-ba70-875d765a9175-attr-4-type" class="er entityLabel">String</text><rect height="22" width="54.62846374511719" y="91" x="37.39605712890625" class="er attributeBoxEven"/><text style="dominant-baseline: middle; font-size: 10.2px;" transform="translate(42.39605712890625,102)" y="0" x="0" id="text-entity-User-818c511a-4a32-5484-ba70-875d765a9175-attr-4-name" class="er entityLabel">email</text><rect height="22" width="22.578125" y="91" x="92.02452087402344" class="er attributeBoxEven"/><text style="dominant-baseline: middle; font-size: 10.2px;" transform="translate(97.02452087402344,102)" y="0" x="0" id="text-entity-User-818c511a-4a32-5484-ba70-875d765a9175-attr-4-comment" class="er entityLabel"/><rect height="22" width="37.39605712890625" y="113" x="0" class="er attributeBoxOdd"/><text style="dominant-baseline: middle; font-size: 10.2px;" transform="translate(5,124)" y="0" x="0" id="text-entity-User-818c511a-4a32-5484-ba70-875d765a9175-attr-5-type" class="er entityLabel">String</text><rect height="22" width="54.62846374511719" y="113" x="37.39605712890625" class="er attributeBoxOdd"/><text style="dominant-baseline: middle; font-size: 10.2px;" transform="translate(42.39605712890625,124)" y="0" x="0" id="text-entity-User-818c511a-4a32-5484-ba70-875d765a9175-attr-5-name" class="er entityLabel">password</text><rect height="22" width="22.578125" y="113" x="92.02452087402344" class="er attributeBoxOdd"/><text style="dominant-baseline: middle; font-size: 10.2px;" transform="translate(97.02452087402344,124)" y="0" x="0" id="text-entity-User-818c511a-4a32-5484-ba70-875d765a9175-attr-5-comment" class="er entityLabel"/><rect height="22" width="37.39605712890625" y="135" x="0" class="er attributeBoxEven"/><text style="dominant-baseline: middle; font-size: 10.2px;" transform="translate(5,146)" y="0" x="0" id="text-entity-User-818c511a-4a32-5484-ba70-875d765a9175-attr-6-type" class="er entityLabel">String</text><rect height="22" width="54.62846374511719" y="135" x="37.39605712890625" class="er attributeBoxEven"/><text style="dominant-baseline: middle; font-size: 10.2px;" transform="translate(42.39605712890625,146)" y="0" x="0" id="text-entity-User-818c511a-4a32-5484-ba70-875d765a9175-attr-6-name" class="er entityLabel">salt</text><rect height="22" width="22.578125" y="135" x="92.02452087402344" class="er attributeBoxEven"/><text style="dominant-baseline: middle; font-size: 10.2px;" transform="translate(97.02452087402344,146)" y="0" x="0" id="text-entity-User-818c511a-4a32-5484-ba70-875d765a9175-attr-6-comment" class="er entityLabel"/></g><g transform="translate(20,277 )" id="entity-Friendship-2db03272-0ee0-5ae7-87c7-4c79f62be075"><rect height="113" width="153.0218963623047" y="0" x="0" class="er entityBox"/><text style="dominant-baseline: middle; text-anchor: middle; font-size: 12px;" transform="translate(76.51094818115234,12)" y="0" x="0" id="text-entity-Friendship-2db03272-0ee0-5ae7-87c7-4c79f62be075" class="er entityLabel">Friendship</text><rect height="23" width="64.84942626953125" y="24" x="0" class="er attributeBoxOdd"/><text style="dominant-baseline: middle; font-size: 10.2px;" transform="translate(5,35.5)" y="0" x="0" id="text-entity-Friendship-2db03272-0ee0-5ae7-87c7-4c79f62be075-attr-1-type" class="er entityLabel">String</text><rect height="23" width="65.59434509277344" y="24" x="64.84942626953125" class="er attributeBoxOdd"/><text style="dominant-baseline: middle; font-size: 10.2px;" transform="translate(69.84942626953125,35.5)" y="0" x="0" id="text-entity-Friendship-2db03272-0ee0-5ae7-87c7-4c79f62be075-attr-1-name" class="er entityLabel">friendshipID</text><rect height="23" width="22.578125" y="24" x="130.4437713623047" class="er attributeBoxOdd"/><text style="dominant-baseline: middle; font-size: 10.2px;" transform="translate(135.4437713623047,35.5)" y="0" x="0" id="text-entity-Friendship-2db03272-0ee0-5ae7-87c7-4c79f62be075-attr-1-comment" class="er entityLabel">🗝️</text><rect height="22" width="64.84942626953125" y="47" x="0" class="er attributeBoxEven"/><text style="dominant-baseline: middle; font-size: 10.2px;" transform="translate(5,58)" y="0" x="0" id="text-entity-Friendship-2db03272-0ee0-5ae7-87c7-4c79f62be075-attr-2-type" class="er entityLabel">DateTime</text><rect height="22" width="65.59434509277344" y="47" x="64.84942626953125" class="er attributeBoxEven"/><text style="dominant-baseline: middle; font-size: 10.2px;" transform="translate(69.84942626953125,58)" y="0" x="0" id="text-entity-Friendship-2db03272-0ee0-5ae7-87c7-4c79f62be075-attr-2-name" class="er entityLabel">createdAt</text><rect height="22" width="22.578125" y="47" x="130.4437713623047" class="er attributeBoxEven"/><text style="dominant-baseline: middle; font-size: 10.2px;" transform="translate(135.4437713623047,58)" y="0" x="0" id="text-entity-Friendship-2db03272-0ee0-5ae7-87c7-4c79f62be075-attr-2-comment" class="er entityLabel"/><rect height="22" width="64.84942626953125" y="69" x="0" class="er attributeBoxOdd"/><text style="dominant-baseline: middle; font-size: 10.2px;" transform="translate(5,80)" y="0" x="0" id="text-entity-Friendship-2db03272-0ee0-5ae7-87c7-4c79f62be075-attr-3-type" class="er entityLabel">DateTime</text><rect height="22" width="65.59434509277344" y="69" x="64.84942626953125" class="er attributeBoxOdd"/><text style="dominant-baseline: middle; font-size: 10.2px;" transform="translate(69.84942626953125,80)" y="0" x="0" id="text-entity-Friendship-2db03272-0ee0-5ae7-87c7-4c79f62be075-attr-3-name" class="er entityLabel">updatedAt</text><rect height="22" width="22.578125" y="69" x="130.4437713623047" class="er attributeBoxOdd"/><text style="dominant-baseline: middle; font-size: 10.2px;" transform="translate(135.4437713623047,80)" y="0" x="0" id="text-entity-Friendship-2db03272-0ee0-5ae7-87c7-4c79f62be075-attr-3-comment" class="er entityLabel"/><rect height="22" width="64.84942626953125" y="91" x="0" class="er attributeBoxEven"/><text style="dominant-baseline: middle; font-size: 10.2px;" transform="translate(5,102)" y="0" x="0" id="text-entity-Friendship-2db03272-0ee0-5ae7-87c7-4c79f62be075-attr-4-type" class="er entityLabel">InviteStatus</text><rect height="22" width="65.59434509277344" y="91" x="64.84942626953125" class="er attributeBoxEven"/><text style="dominant-baseline: middle; font-size: 10.2px;" transform="translate(69.84942626953125,102)" y="0" x="0" id="text-entity-Friendship-2db03272-0ee0-5ae7-87c7-4c79f62be075-attr-4-name" class="er entityLabel">status</text><rect height="22" width="22.578125" y="91" x="130.4437713623047" class="er attributeBoxEven"/><text style="dominant-baseline: middle; font-size: 10.2px;" transform="translate(135.4437713623047,102)" y="0" x="0" id="text-entity-Friendship-2db03272-0ee0-5ae7-87c7-4c79f62be075-attr-4-comment" class="er entityLabel"/></g><rect height="14" width="58.830078125" y="204.05068969726562" x="-51.4238166809082" class="er relationshipLabelBox"/><text style="text-anchor: middle; dominant-baseline: middle; font-size: 12px;" y="211.05068969726562" x="-22.008777618408203" id="rel1" class="er relationshipLabel">friendships</text><rect height="14" width="45.39453125" y="220.540771484375" x="30.992874145507812" class="er relationshipLabelBox"/><text style="text-anchor: middle; dominant-baseline: middle; font-size: 12px;" y="227.540771484375" x="53.69013977050781" id="rel2" class="er relationshipLabel">friendOf</text><rect height="14" width="23.958984375" y="220.540771484375" x="127.35202026367188" class="er relationshipLabelBox"/><text style="text-anchor: middle; dominant-baseline: middle; font-size: 12px;" y="227.540771484375" x="139.33151245117188" id="rel3" class="er relationshipLabel">user</text><rect height="14" width="32.623046875" y="204.05072021484375" x="198.7191619873047" class="er relationshipLabelBox"/><text style="text-anchor: middle; dominant-baseline: middle; font-size: 12px;" y="211.05072021484375" x="215.0306854248047" id="rel4" class="er relationshipLabel">friend</text><rect height="14" width="66.259765625" y="433" x="63.381065368652344" class="er relationshipLabelBox"/><text style="text-anchor: middle; dominant-baseline: middle; font-size: 12px;" y="440" x="96.51094818115234" id="rel5" class="er relationshipLabel">enum:status</text></svg>